<?xml version="1.0" encoding="utf-8"?>
<!-- Generator: Adobe Illustrator 21.1.0, SVG Export Plug-In . SVG Version: 6.00 Build 0)  -->
<svg version="1.1" id="レイヤー_1" xmlns="http://www.w3.org/2000/svg" xmlns:xlink="http://www.w3.org/1999/xlink" x="0px"
	 y="0px" viewBox="0 0 620 123" style="enable-background:new 0 0 620 123;" xml:space="preserve">
<style type="text/css">
	.st0{fill:#009EDB;}
</style>
<g>
	<g>
		<path d="M186.6,55.8c3.3,11.8,9.7,20.3,19.9,26.4c1.1,0.6,1.5,1.3,1.5,2.2c0,1.3-1.1,2.5-2.3,2.5c-1.6,0-5.6-2.8-9.4-6.5
			c-5.8-5.7-9.5-11.9-12.1-20.1c-2.5,10.1-7.3,17.2-15.6,23.3c-3.2,2.3-5.7,3.7-6.8,3.7c-1.2,0-2.2-1.1-2.2-2.3
			c0-0.6,0.3-1.2,0.7-1.6c0.3-0.2,0.3-0.3,1.6-0.9C173,76.1,179.1,67.7,181,56h-19.4c-1,0-1.8-0.9-1.8-2.1c0-1.2,0.7-2.1,1.8-2.1
			h19.6V40.4c0-1.1,0.9-2,2.2-2c1.2,0,2.2,0.8,2.2,2v11.2h20c1,0,1.7,0.9,1.7,2.1c0,1.2-0.7,2.1-1.7,2.1H186.6z"/>
		<path d="M253.9,53.1c3,0,4.4,1.4,4.4,4.4v23.9c0,3-1.4,4.4-4.4,4.4h-34.8c-3,0-4.4-1.4-4.4-4.4V57.5c0-3,1.4-4.4,4.4-4.4h9.1v-8.3
			h-15c-0.9,0-1.5-0.7-1.5-1.8c0-1.2,0.6-1.9,1.5-1.9h46.7c0.9,0,1.6,0.8,1.6,1.9c0,1.1-0.6,1.8-1.6,1.8h-16.1v8.3H253.9z
			 M232.1,56.7v0.2v0.5c-0.3,6.2-2.7,11.8-6.8,15.6c-2.4,2.3-2.4,2.3-3.4,2.3s-2-0.9-2-1.9c0-0.8,0.1-0.8,1.6-2.3
			c4.1-3.9,6.2-8.6,6.5-14.3h-8c-0.9,0-1.4,0.5-1.4,1.4v22.7c0,0.9,0.4,1.3,1.4,1.3h32.7c0.9,0,1.4-0.5,1.4-1.4v-9h-10.4
			c-2.8,0-4.1-1.2-4.1-4v-11h-7.5V56.7z M239.9,44.8h-7.8v8.3h7.8V44.8z M254.3,58.1c0-0.9-0.5-1.4-1.4-1.4h-9.2v9.7
			c0,1.4,0.3,1.8,1.7,1.8h8.9V58.1z"/>
		<path d="M306.9,54.5c2.4,0,3.6,1.2,3.6,3.6v8.8c0,2.5-1.2,3.7-3.6,3.7h-9.5v3.9H312c0.8,0,1.4,0.6,1.4,1.6c0,1.1-0.5,1.7-1.4,1.7
			h-14.7v5.7h15.6c0.9,0,1.6,0.7,1.6,1.8c0,1.1-0.7,1.8-1.6,1.8h-20c-9.7-0.1-14.9-1.7-19.1-6.1c-3.9,4.5-6.4,6.8-7.6,6.8
			c-1.1,0-2.1-1-2.1-2.1c0-0.7,0.3-1.1,1.4-2c1.8-1.4,4.1-3.3,5.9-5v-14c0-0.8-0.4-1.3-1.2-1.3h-4.7c-1,0-1.7-0.8-1.7-1.8
			c0-1.1,0.7-1.9,1.7-1.9h5.9c2.5,0,3.9,1.3,3.9,3.8v14.6c3.4,3.5,9.5,5.3,17.6,5.4h0.8v-5.7h-14.3c-0.8,0-1.3-0.7-1.3-1.7
			c0-0.9,0.5-1.6,1.3-1.6h14.3v-3.9h-9.1c-2.4,0-3.6-1.2-3.6-3.7v-8.8c0-2.4,1.2-3.6,3.6-3.6h9.1v-3.7h-9.1c-0.7,0-1.2-0.6-1.2-1.5
			s0.5-1.5,1.2-1.5h9.1v-4.2H283c-0.8,0-1.2,0.4-1.2,1.3v4.5c0,0.8-0.7,1.4-1.9,1.4c-1.1,0-1.8-0.6-1.8-1.4V44
			c0-2.4,1.2-3.5,3.5-3.5h28.1c2.4,0,3.5,1.2,3.5,3.5v5.3c0,0.9-0.7,1.5-1.8,1.5c-1.1,0-1.8-0.6-1.8-1.5v-4.4c0-0.8-0.4-1.3-1.2-1.3
			h-11v4.2h9.5c0.8,0,1.3,0.6,1.3,1.5s-0.5,1.5-1.3,1.5h-9.5v3.7L306.9,54.5L306.9,54.5z M271.7,43.2c2.5,2.7,3.7,4.4,3.7,5.3
			c0,1-1.1,2-2.1,2c-0.8,0-1.1-0.2-2.1-1.5c-1.3-1.8-3.5-4.4-5.3-6.4c-0.6-0.6-0.8-1-0.8-1.5c0-0.9,1-1.9,1.9-1.9
			C267.9,39.2,268.8,40,271.7,43.2z M285.7,57.3c-0.8,0-1.2,0.5-1.2,1.3V61h9v-3.6h-7.8V57.3z M284.5,63.7v2.6
			c0,0.8,0.4,1.2,1.2,1.2h7.8v-3.9h-9V63.7z M306.7,58.7c0-0.8-0.4-1.3-1.2-1.3h-8.2V61h9.4L306.7,58.7L306.7,58.7z M297.3,67.6h8.2
			c0.8,0,1.2-0.4,1.2-1.2v-2.6h-9.4L297.3,67.6L297.3,67.6z"/>
		<path d="M329.1,75h7.3c0.9,0,1.5,0.7,1.5,1.8c0,1.1-0.6,1.8-1.5,1.8h-7.3v8c0,0.8-0.7,1.5-1.8,1.5c-1.1,0-1.7-0.6-1.7-1.5v-8h-7.5
			c-0.9,0-1.5-0.7-1.5-1.8c0-1.1,0.6-1.8,1.5-1.8h7.5v-4.1h-3.8c-2.2,0-3.3-1.2-3.3-3.4V54.6c0-2.2,1.2-3.3,3.3-3.3h3.8v-4h-7.1
			c-0.9,0-1.5-0.7-1.5-1.8s0.6-1.8,1.5-1.8h7.1v-4.3c0-0.8,0.7-1.4,1.8-1.4c1,0,1.7,0.6,1.7,1.4v4.3h6.9c0.8,0,1.5,0.7,1.5,1.8
			s-0.6,1.8-1.5,1.8h-6.9v4h4.1c2.2,0,3.3,1.1,3.3,3.3v12.9c0,2.3-1.1,3.4-3.3,3.4h-4.1V75z M325.7,54.4h-3.1c-0.7,0-1.1,0.3-1.1,1
			v4h4.1v-5H325.7z M321.5,62.4v4.3c0,0.6,0.4,0.9,1.1,0.9h3.1v-5.2C325.7,62.4,321.5,62.4,321.5,62.4z M333.3,59.5v-4
			c0-0.7-0.4-1-1.1-1h-3.3v5H333.3z M328.9,67.6h3.3c0.7,0,1.1-0.3,1.1-0.9v-4.3h-4.4V67.6z M338.8,56.3c-0.9,0-1.9-0.9-1.9-1.9
			c0-0.7,0.3-1.1,1.4-1.9c3.5-2.5,7.8-7.8,10.7-13c0.6-1.1,1.5-1.7,2.6-1.7c1.3,0,2,0.5,3.1,2.3c2.7,4.4,6.5,8.3,11.6,12.1
			c0.8,0.6,1.2,1.1,1.2,1.8c0,1.1-0.8,2-1.8,2c-1.2,0-3.2-1.5-6.4-4.9c-3.5-3.7-5.1-5.6-7.5-9.2C347.9,48.7,341.1,56.3,338.8,56.3z
			 M342.2,76.1v10.5c0,0.8-0.6,1.4-1.5,1.4c-1,0-1.7-0.6-1.7-1.4V60.8c0-2,1-3,3.1-3h6c2,0,3,1,3,3v23.8c0,2.2-0.9,3-3.1,3
			c-3.1,0-4.1-0.4-4.1-2c0-0.9,0.5-1.5,1.4-1.5c0.2,0,0.2,0,0.7,0.1c0.3,0.1,0.5,0.1,0.7,0.1c0.8,0,1.1-0.3,1.1-1.2V76L342.2,76.1
			L342.2,76.1z M347.8,61.9c0-0.6-0.3-0.9-1-0.9h-3.7c-0.6,0-0.9,0.3-0.9,0.9v3.5h5.6V61.9z M347.8,68.3h-5.6v4.8h5.6V68.3z
			 M357.1,50.4c0.8,0,1.4,0.7,1.4,1.7s-0.6,1.7-1.4,1.7h-10.7c-0.8,0-1.4-0.6-1.4-1.7c0-1.1,0.5-1.7,1.4-1.7H357.1z M357.5,77.3
			c0,0.8-0.7,1.4-1.6,1.4s-1.6-0.6-1.6-1.4V60.7c0-0.7,0.7-1.3,1.6-1.3s1.6,0.6,1.6,1.3V77.3z M364.8,84c0,2.7-0.9,3.6-3.5,3.6
			c-4.5,0-5.5-0.4-5.5-2c0-1.2,0.6-1.8,1.7-1.8c0.2,0,0.2,0,1.9,0.2c0.2,0.1,0.4,0.1,0.6,0.1c1.1,0,1.4-0.3,1.4-1.3V59.1
			c0-0.9,0.7-1.5,1.8-1.5c1.1,0,1.7,0.6,1.7,1.5V84H364.8z"/>
		<path d="M378.4,61.2c-1.8,5.5-3.5,9.8-5.8,14.1c-0.4,0.8-1.1,1.2-1.7,1.2c-1,0-1.9-0.9-1.9-1.9c0-0.6,0-0.6,1.3-2.6
			c2.9-4.6,5.8-11.8,7.7-19h-6.3c-0.9,0-1.5-0.7-1.5-1.9c0-1.1,0.6-1.8,1.5-1.8h6.8v-9.5c0-0.9,0.8-1.5,1.8-1.5c1.2,0,2,0.6,2,1.5
			v9.5h5.9c0.9,0,1.5,0.7,1.5,1.8c0,1.2-0.6,1.9-1.5,1.9h-5.9v5.2c2.5,2.3,3.1,3,7.1,7.3c0.5,0.6,0.8,1.1,0.8,1.6
			c0,0.9-0.8,1.8-1.8,1.8c-0.8,0-1.2-0.3-2.1-1.5c-1.2-1.7-2.2-3-4-5.2v24.1c0,0.9-0.8,1.6-2,1.6c-1.1,0-1.8-0.7-1.8-1.6V61.2H378.4
			z M389.7,64.1c-0.9,0-1.5-0.6-1.5-1.7c0-1.1,0.6-1.8,1.5-1.8h12.2v-8.5H395c-1.9,5.5-3,7.2-4.4,7.2c-1.1,0-1.9-0.7-1.9-1.7
			c0-0.5,0.1-0.8,0.6-1.7c2.2-4.1,3.9-8.9,4.6-13.1c0.2-1.1,0.8-1.7,1.8-1.7c1.1,0,1.9,0.8,1.9,1.9c0,0.9-0.5,3.2-1.3,5.5h5.6V40
			c0-0.9,0.8-1.6,2-1.6c1.1,0,1.9,0.7,1.9,1.6v8.5H416c0.8,0,1.5,0.8,1.5,1.8c0,1.1-0.6,1.8-1.5,1.8h-10.2v8.5h12.4
			c0.9,0,1.5,0.7,1.5,1.8s-0.6,1.7-1.5,1.7H407c3.2,5.4,7.5,10.8,12.4,15.7c0.7,0.7,1,1.2,1,1.9c0,1-1,2-2,2c-0.8,0-1.2-0.3-2.4-1.6
			c-4.4-4.9-7.8-9.7-10.3-14.6v18.8c0,1-0.8,1.7-1.9,1.7c-1.2,0-2-0.6-2-1.7v-18c-2.4,4.9-6.2,10.1-10.6,14.5
			c-1.7,1.7-2,1.8-2.7,1.8c-0.9,0-2-1-2-2c0-0.9,0.1-0.9,1.9-2.6c5-4.6,9.4-10.3,12.2-15.8L389.7,64.1L389.7,64.1z"/>
		<path d="M469.8,49c0.9,0,1.6,0.8,1.6,2s-0.7,2-1.6,2h-14.6c0.9,10.9,3.2,18.6,7.4,24.9c1.7,2.5,3.5,4.5,4.2,4.5s1.2-2.2,1.4-7.4
			c0.1-1.2,0.8-1.9,2-1.9c1.3,0,2.1,0.8,2.1,2.3c0,2.5-0.5,6.5-1.2,8.9c-0.6,2.3-2,3.5-3.7,3.5c-2.5,0-6-3.2-9.2-8.4
			c-4-6.8-6.1-14-7.3-26.3h-25.7c-0.9,0-1.6-0.8-1.6-2s0.7-2,1.6-2h25.4l-0.1-1.4l-0.1-2c-0.3-4.5-0.3-5-0.3-5.5
			c0-1.4,0.7-2.1,2.2-2.1c1,0,1.7,0.5,2,1.3c0.1,0.4,0.1,0.7,0.2,3.3c0.1,2,0.1,3.6,0.3,6.4h15V49z M440.4,78.7l5.4-0.8
			c1-0.2,2-0.3,3-0.5c1.7-0.3,2-0.4,2.4-0.4c1.2,0,2,0.8,2,2.1c0,0.9-0.5,1.5-1.5,1.8c-2.7,0.8-22.4,3.8-25.5,3.8
			c-1.3,0-2.2-0.9-2.2-2.3c0-0.8,0.5-1.5,1.2-1.8c0.4-0.2,0.6-0.2,2.3-0.3c3-0.3,5.2-0.5,8.8-1.1V65h-8.8c-0.9,0-1.7-0.8-1.7-1.9
			s0.7-1.9,1.7-1.9h21.2c0.9,0,1.7,0.8,1.7,1.9c0,1.1-0.7,1.9-1.7,1.9h-8.2L440.4,78.7L440.4,78.7z M463.9,41.1c2.2,2.3,3.2,4,3.2,5
			s-0.9,1.8-2,1.8c-0.8,0-1.2-0.2-2-1.3c-1.5-2.1-2.5-3.3-3.9-4.7c-0.5-0.5-0.7-1-0.7-1.5c0-1,0.9-1.9,1.9-1.9
			C461.3,38.6,462,39,463.9,41.1z"/>
		<path d="M485.7,55.6c-4,2.5-7.4,4.3-8.5,4.3s-1.9-0.9-1.9-2.1c0-0.6,0.3-1.3,0.8-1.6c0.3-0.2,0.4-0.2,1.3-0.6
			c8.2-3.8,13.6-8,19.9-15.8c1-1.2,1.7-1.6,2.9-1.6c1.3,0,1.7,0.3,3.2,2c5.1,5.7,12.7,11.2,20.2,14.7c1.3,0.5,1.8,1.2,1.8,2.1
			c0,1.3-0.9,2.3-2,2.3c-1.7,0-6.6-2.8-13.3-7.6c-3.8-2.8-7.2-6-9.9-9.2C496.2,47.6,491.9,51.5,485.7,55.6z M496.9,69
			c-2.6,4.7-5.4,9.3-8.2,13l6.8-0.4c5-0.3,7.2-0.4,14.9-1.1l2.6-0.3c-1.2-1.3-3.4-3.7-4.9-5.2c-0.6-0.6-0.9-1.1-0.9-1.6
			c0-1,0.9-2,2-2c0.7,0,1.2,0.3,2.4,1.4c4.7,4.5,6.9,6.8,10.3,11c0.5,0.6,0.7,1.2,0.7,1.7c0,1.1-1,2.1-2.1,2.1
			c-0.9,0-1.2-0.1-2.5-1.7l-2.3-2.6c-2.9,0.4-5.5,0.7-8.6,1.1c-4.8,0.5-23.5,1.8-26.3,1.8c-1.7,0-2.6-0.7-2.6-2.1c0-1,0.6-1.8,1.5-2
			c0.3-0.1,0.8-0.1,3-0.1h1.3c3-4.1,6-9,8.2-13.1H478c-0.9,0-1.6-0.7-1.6-1.8c0-1.1,0.6-1.8,1.6-1.8h44.7c1,0,1.6,0.7,1.6,1.8
			c0,1.1-0.6,1.8-1.6,1.8L496.9,69L496.9,69z M512,54.4c0.9,0,1.6,0.8,1.6,1.8c0,1.1-0.6,1.8-1.6,1.8h-22.9c-0.9,0-1.6-0.8-1.6-1.8
			c0-1.1,0.7-1.8,1.6-1.8H512z"/>
		<path d="M541.9,86.2c0,1-0.8,1.7-2.1,1.7c-1.2,0-2-0.7-2-1.7V66.4c-1.6,1.7-3.7,3.9-5.5,5.3c-1.2,1-1.6,1.2-2.3,1.2
			c-1.1,0-2-1-2-2.1c0-0.9,0.1-1.1,2.2-2.7c4.6-3.7,10.6-10.6,13.5-15.4c0.5-0.9,0.6-1.2,0.6-1.5c0-0.4-0.4-0.6-1.1-0.6h-12.9
			c-0.9,0-1.6-0.8-1.6-1.9c0-1.1,0.7-1.9,1.6-1.9h7.1v-7.1c0-1,0.8-1.7,2-1.7s2,0.7,2,1.7v7.1h4.7c2.1,0,3.1,0.8,3.1,2.2
			c0,2-2.6,6.5-7.1,12.3c3.9,2.5,5.5,3.7,8.5,6.3c0.7,0.6,1.1,1.2,1.1,1.9c0,1.1-0.9,2.1-2.1,2.1c-0.8,0-1.1-0.2-2.1-1.3
			c-1.2-1.2-4.3-4.1-5.7-5.2L541.9,86.2L541.9,86.2z M560.6,40.1c0-1,0.8-1.7,2.1-1.7c1.2,0,2.1,0.7,2.1,1.7v14.4h9.9
			c0.9,0,1.6,0.8,1.6,2s-0.6,2-1.6,2h-9.9v23.8h11.4c0.9,0,1.6,0.8,1.6,2c0,1.1-0.7,2-1.6,2h-27.4c-0.9,0-1.5-0.8-1.5-2s0.6-2,1.5-2
			h11.8V58.4h-9.7c-0.9,0-1.6-0.8-1.6-2s0.7-2,1.6-2h9.7L560.6,40.1L560.6,40.1z"/>
	</g>
</g>
<path class="st0" d="M76,90.3c8.8,0,17.3,0,17.3,0s5.4,0.7,8.3-7.6C104.2,74,115.4,27,115.4,27s1.6-6-4.2-6.9
	c-7.8,0.2-21.6,0-21.6,0s-5.3,1.5-6.7,6.9L69.2,81.6C69.2,81.6,67.2,90.3,76,90.3z"/>
<path class="st0" d="M133,101.5H72.1c0,0-24.5,0.8-26-24.5c0,0,0,0,0,0c0.1-2.1,0.4-4.1,0.8-5.6c4.9-18.4,8.5-31.6,10.3-38.2v0
	c2.3-8.3,7.6-14.6,8.9-16.1c3.5-3.6,8.3-7.1,14.7-8.7C81,8.2,81,8,80.8,8H56.5c0,0,0,0,0,0c-0.4,0.1-19.2,5.7-25.4,20.3c0,0,0,0,0,0
	L16.3,84.9c0,0-5.7,18.2,14.7,29c1.6,0.6,4.7,1.4,10.8,1.4h55H125h4.4c0.1,0,0.1,0,0.2-0.1l3.6-13.5
	C133.2,101.6,133.1,101.5,133,101.5z"/>
</svg>
